<svg viewBox="0 0 3000 3000" xmlns="http://www.w3.org/2000/svg"><defs><linearGradient x1="32.233%" y1="172.723%" x2="66.968%" y2="-67.185%" id="a"><stop stop-color="#8215FF" offset="0%"/><stop stop-color="#8215FF" offset="0%"/><stop stop-color="#B84AC8" offset="34%"/><stop stop-color="#DE71A0" offset="63%"/><stop stop-color="#F68888" offset="86%"/><stop stop-color="#FF917F" offset="100%"/></linearGradient><linearGradient x1="97.953%" y1="96.034%" x2="2.058%" y2="95.754%" id="b"><stop stop-color="#8215FF" offset="0%"/><stop stop-color="#F88A86" offset="31.657%"/><stop stop-color="#F68888" offset="66.896%"/><stop stop-color="#B84AC8" offset="82.088%"/><stop stop-color="#8215FF" offset="90.519%"/><stop stop-color="#DE71A0" offset="100%"/></linearGradient></defs><g fill="none" fill-rule="evenodd"><g transform="translate(434 2104)" fill="url(#a)"><path d="M.63 526.44h34V.06h-34zM94.73.06c10.77 20.78 19.24 40.44 24.75 60.53a222.53 222.53 0 0 1 0 120.56c-5.52 20.07-14 39.73-24.71 60.54 20.89-10.83 37.82-29 49.4-50.3a149.57 149.57 0 0 0 0-141C132.5 29.13 115.59 10.92 94.73.06zM119.48 345.35a222.49 222.49 0 0 1 0 120.55c-5.52 20.08-14 39.74-24.71 60.55 20.89-10.83 37.82-29 49.4-50.31a149.55 149.55 0 0 0 0-141c-11.67-21.25-28.58-39.46-49.44-50.32 10.77 20.78 19.24 40.44 24.75 60.53zM245.09 526.44h34V.06h-34zM370.92 526.44v-38.21l-34 38.21zM370.83 280.26v-34l-36.93 17zM370.83 38.27V.06h-34zM448.25 526.44h34V.06h-34zM574 526.45v-38.21l-34 38.21zM760 488.24l-34 38.21h34zM668.3 526.44V.06h-34v526.38zM793 .06l47.49 526.39h34.14L827.15.06zM885.57.06L933 526.45h34.14L919.65.06zM969 .06l17 38.21 17-38.21zM1200.65.06h5.17v38.21l-34-38.21zM1205.82 246.25l-36.93 17 36.93 17zM1171.82 526.44h34v-38.21zM1080.17 526.44h34V.06h-34zM1451.06 38.27V.06h-34zM1277.67 38.27l34-38.21h-34zM1347.36 526.44h34V.06h-34zM1511.47 526.45h34V.06h-34zM1637 246.25l-36.93 17 36.93 17v246.18h34V.06h-34zM1753.49 526.43h34V.06h-34zM1879.22 38.26V.05h-34zM1879.22 280.25v-34l-36.92 17zM1879.27 526.45v-38.21l-34 38.21zM1955 526.44h34V.06h-34zM2049.17 241.69c20.9-10.83 37.82-29 49.41-50.3a149.61 149.61 0 0 0-.05-141c-11.59-21.25-28.5-39.46-49.36-50.32 10.78 20.78 19.24 40.44 24.75 60.53a222.53 222.53 0 0 1 0 120.56c-5.61 20.06-14.05 39.72-24.8 60.53h.05zM2121.29 503.32c-1.57-9.74-2.43-19.54-3.39-29.84-2.39-20.58-2.14-42.77-3.07-65.78-.78-24.45-7-49.17-18.46-70.52-11.46-21.35-27.7-39.8-47.28-52.36 12.52 19.57 21.83 39.72 27.58 60.39a190.78 190.78 0 0 1 6.76 62.43c-1 22.36-2.37 45.75 1.1 70.28 2.07 12.16 6.18 24.78 14 35.76 7.59 10.91 19.67 19.85 32.79 20.7-5.95-11.59-8.32-21.32-10-31.06h-.03z"/></g><g transform="translate(430 361)" fill="url(#b)"><path d="M1159.13 1652.63c-1.26-7.56-6.52-12.73-12-17.34-5.59-4.62-11.66-8.92-17.42-14.53-5.76-5.61-10.33-13.78-12.4-21.68-2.26-8-2.74-15.91-3.38-23.34-.53-7.8-1.21-13.58-3.25-19.56a43.76 43.76 0 0 0-9.27-15.69 42 42 0 0 0-62.89 0 43.78 43.78 0 0 0-9.28 15.69c-2 6-2.69 11.75-3.24 19.55-.64 7.44-1.13 15.35-3.38 23.35-2.06 7.9-6.58 16.16-12.41 21.68s-11.84 9.91-17.43 14.53c-5.43 4.61-10.7 9.77-12 17.33a21.36 21.36 0 0 1 1.68-11.35 50.31 50.31 0 0 1 6.06-10c4.65-6.11 9.94-11.45 13.77-17.17 8.17-10.7 7.64-24 7.29-38.78-.08-3.76-.34-7.28-.08-11.76a61.89 61.89 0 0 1 2.08-12.7 63 63 0 0 1 11.7-23.2 59.81 59.81 0 0 1 93.24 0 63.11 63.11 0 0 1 11.7 23.18c2.42 8.25 2.36 17.46 2 24.46-.35 14.75-.88 28.09 7.3 38.8 3.83 5.72 9.13 11 13.78 17.16a49.85 49.85 0 0 1 6.06 10 21.22 21.22 0 0 1 1.77 11.37z"/><path d="M1248.27 1652.63a42 42 0 0 0-7.49-20.34 95.24 95.24 0 0 0-14.32-16.34c-10.71-10-22.46-19.1-33-30.38a88.07 88.07 0 0 1-13.79-19.18 100.09 100.09 0 0 1-8.23-22.27c-3.78-15.26-4.47-30.63-5.3-45.47-.62-15.2-1.61-28.48-5.87-41.56a97.26 97.26 0 0 0-19.76-35.14c-17.57-20.4-43.67-32.76-70.49-32.41-26.81-.32-52.93 12-70.47 32.43a97.32 97.32 0 0 0-19.76 35.12c-4.26 13.08-5.22 26.36-5.86 41.56-.83 14.84-1.53 30.21-5.3 45.48a99.63 99.63 0 0 1-8.24 22.27 88.13 88.13 0 0 1-13.79 19.19c-10.56 11.28-22.32 20.4-33 30.38a95.12 95.12 0 0 0-14.32 16.32 42 42 0 0 0-7.49 20.34 43.56 43.56 0 0 1 4.74-21.91 97.39 97.39 0 0 1 12.85-18.76c9.77-11.47 20.74-21.64 29.37-33 18.59-22 18.94-51.42 18.83-80.68 0-7.46-.25-14.7.41-22.87a119.61 119.61 0 0 1 26.39-66.23c20.56-25.13 52.91-40.7 85.67-40.6 32.75-.07 65.12 15.46 85.65 40.62a116.35 116.35 0 0 1 22.17 42.62 114.33 114.33 0 0 1 4.2 23.6c.67 8.16.39 15.4.42 22.86-.1 29.26.24 58.73 18.84 80.7 8.63 11.39 19.61 21.55 29.38 33a97.58 97.58 0 0 1 12.86 18.76 43.61 43.61 0 0 1 4.7 21.89z"/><path d="M1337.4 1652.63c-.59-11.19-4.63-21.74-10.55-30.9-5.92-9.16-13.2-17.45-21-25.2-15.79-15.41-33.33-29.22-48.71-46.15a129.49 129.49 0 0 1-19.94-28.41 145.33 145.33 0 0 1-11.7-32.81c-5.31-22.53-6.21-45.36-7.23-67.61-.7-22.59-2-43.37-8.49-63.56a151 151 0 0 0-30.24-54.58 148.75 148.75 0 0 0-49.26-37.46 144 144 0 0 0-120.53 0 147.9 147.9 0 0 0-49.24 37.47 150.71 150.71 0 0 0-30.25 54.57c-6.49 20.18-7.76 41-8.48 63.55-1 22.25-1.93 45.08-7.22 67.62a146 146 0 0 1-11.71 32.81 129.93 129.93 0 0 1-19.95 28.42c-15.39 16.92-32.93 30.74-48.71 46.14-7.82 7.74-15.2 15.93-21 25.19-5.8 9.26-10 19.71-10.56 30.9-.48-11.17 2.59-22.44 7.8-32.47 5.21-10.03 12.34-19 19.74-27.45 14.94-16.77 31.48-31.88 44.89-49a122.62 122.62 0 0 0 16.93-27 133.65 133.65 0 0 0 9.12-30.43c3.82-21.1 4.21-43 4.31-65.19.14-11.17-.16-22.13.91-34 .17-5.86 1.37-11.61 2.31-17.39.74-5.83 2.63-11.41 4-17.11a169.89 169.89 0 0 1 32.66-62.07 164.5 164.5 0 0 1 55.73-43.23 160 160 0 0 1 137.93 0 164.07 164.07 0 0 1 55.72 43.24 169.85 169.85 0 0 1 32.66 62.06c1.4 5.7 3.29 11.28 4 17.1.94 5.79 2.14 11.53 2.3 17.39 1.07 11.85.77 22.81.92 34 .09 22.18.49 44.09 4.31 65.19a132.59 132.59 0 0 0 9.12 30.44 123.06 123.06 0 0 0 16.93 27c13.41 17.08 30 32.19 44.9 49 7.4 8.46 14.45 17.41 19.74 27.45 5.29 10.04 8.32 21.31 7.84 32.48z"/><path d="M1426.53 1652.63c-.6-14.92-5.84-29.11-13.61-41.46-7.77-12.35-17.45-23.53-27.8-34-20.91-20.77-44.13-39.41-64.31-62a171.61 171.61 0 0 1-26.09-37.64 192.38 192.38 0 0 1-15.17-43.34c-6.83-29.81-8-60.1-9.14-89.75-.8-30-2.4-58.27-11.12-85.57a204.26 204.26 0 0 0-40.73-74 200.35 200.35 0 0 0-66.76-50.87 194.62 194.62 0 0 0-163.6 0 199.94 199.94 0 0 0-66.73 50.91 204.28 204.28 0 0 0-40.74 74c-8.72 27.29-10.29 55.57-11.1 85.56-1.2 29.65-2.34 59.94-9.15 89.75a192 192 0 0 1-15.18 43.35 172.22 172.22 0 0 1-26.08 37.65c-20.19 22.6-43.42 41.23-64.32 62-10.36 10.44-20.15 21.49-27.81 34-7.66 12.51-13 26.54-13.62 41.46-.47-14.9 3.79-29.8 10.86-43 7.07-13.2 16.6-25.07 26.53-36.22 20.06-22.13 42.29-42.07 60.49-64.81a165.09 165.09 0 0 0 23.08-36.21 179.43 179.43 0 0 0 12.58-41c5.35-28.37 6-57.74 6.23-87.32.26-14.88-.06-29.55 1.41-45.09.26-7.72 1.86-15.28 3.11-22.89 1-7.67 3.5-15 5.36-22.5a223.28 223.28 0 0 1 43.15-81.52 216.53 216.53 0 0 1 73.22-56.67 210.54 210.54 0 0 1 181 0 216 216 0 0 1 73.21 56.68 223.27 223.27 0 0 1 43.15 81.5c1.86 7.49 4.37 14.83 5.36 22.5 1.25 7.61 2.86 15.17 3.1 22.89 1.47 15.54 1.15 30.22 1.41 45.09.28 29.58.89 59 6.23 87.33a179 179 0 0 0 12.59 41 165.39 165.39 0 0 0 23.08 36.22c18.21 22.74 40.44 42.67 60.5 64.8 9.93 11.15 19.39 23 26.53 36.22 7.14 13.22 11.35 28.05 10.88 42.95z"/><path d="M1515.67 1652.63c-.52-18.63-6.91-36.49-16.52-52.07-9.47-15.75-21.84-29.54-34.72-42.67-26-26.17-55-49.57-80-77.8-12.45-14.09-23.79-29.66-32.18-46.92s-14.48-35.4-18.66-53.88c-8.35-37.09-9.69-74.84-11.07-111.89-.76-18.48-.89-37.24-3-54.91-.51-9-2.47-17.78-4.08-26.61-1.24-8.92-4.35-17.4-6.61-26.06-10.49-34.27-27.77-66.5-51.21-93.47-23.27-27-52-49.35-84.25-64.37a245.37 245.37 0 0 0-206.69 0 252.23 252.23 0 0 0-84.24 64.38c-23.43 27-40.72 59.19-51.21 93.45-2.26 8.67-5.37 17.15-6.61 26.07-1.6 8.83-3.57 17.61-4.06 26.61-2.17 17.66-2.29 36.42-3.06 54.9-1.37 37-2.73 74.8-11.07 111.89-4.18 18.49-10.12 36.76-18.66 53.89-8.54 17.13-19.75 32.83-32.18 46.93-25 28.23-54 51.63-80 77.79-12.88 13.13-25.26 26.92-34.72 42.67-9.61 15.57-16 33.43-16.53 52.06-.55-18.61 4.86-37.19 13.78-53.64 8.92-16.45 21-31.08 33.44-44.92 25.15-27.54 53.11-52.22 76.16-80.62 11.56-14.12 21.85-29.09 29.16-45.48a225.22 225.22 0 0 0 16.07-51.5c6.88-35.65 7.69-72.48 8.16-109.47.37-18.58 0-37 1.9-56.2.34-9.58 2.33-19 3.91-28.39 1.24-9.51 4.37-18.61 6.69-27.9 10.72-36.74 28.78-71.55 53.62-101a268.73 268.73 0 0 1 90.73-70.14 261.27 261.27 0 0 1 224.09 0 268.05 268.05 0 0 1 90.72 70.15c24.84 29.4 42.9 64.21 53.62 101 2.32 9.28 5.45 18.38 6.69 27.9 1.58 9.43 3.57 18.81 3.89 28.38 1.88 19.24 1.54 37.62 1.91 56.21.47 37 1.3 73.81 8.16 109.46a225.54 225.54 0 0 0 16.06 51.54c7.32 16.38 17.62 31.35 29.16 45.48 23.06 28.4 51 53.07 76.18 80.61 12.46 13.84 24.51 28.38 33.44 44.92 8.93 16.54 14.34 34.99 13.79 53.62z"/><path d="M1585.25 1589.99c-11.3-19-26.12-35.6-41.54-51.43-31.1-31.54-65.76-59.74-95.58-93.64-14.83-16.92-28.29-35.59-38.21-56.21-10.1-20.49-17.1-42.32-22-64.43-9.76-44.34-11.52-89.51-13.12-134-.91-22.18-1-44.66-3.65-66-.62-10.85-3-21.45-4.89-32.11-1.49-10.75-5.22-21-7.94-31.46-12.61-41.36-33.43-80.3-61.69-112.91-28.07-32.69-62.79-59.64-101.75-77.81a295.9 295.9 0 0 0-249.77 0c-39 18.17-73.7 45.11-101.73 77.82-28.27 32.61-49.09 71.54-61.7 112.9-2.72 10.46-6.45 20.7-7.94 31.46-1.92 10.66-4.28 21.26-4.87 32.11-2.6 21.35-2.74 43.83-3.65 66-1.6 44.46-3.37 89.64-13.13 134-4.89 22.11-11.9 43.94-22 64.43-9.92 20.63-23.4 39.28-38.21 56.22-29.83 33.89-64.5 62.1-95.6 93.63-15.42 15.83-30.24 32.45-41.54 51.43-11.46 18.77-19 40.28-19.56 62.63-.55-22.33 6-44.55 16.81-64.21 10.81-19.66 25.26-37.14 40.25-53.68 30.27-32.91 63.93-62.4 91.78-96.46 14-16.93 26.47-34.92 35.4-54.67 9.17-19.65 15.42-40.63 19.68-62 8.5-43 9.34-87.27 10-131.65.44-22.29 0-44.39 2.29-67.31.4-11.44 2.8-22.63 4.69-33.89 1.48-11.36 5.24-22.22 8-33.3 12.84-43.84 34.43-85.36 64.11-120.41a320.77 320.77 0 0 1 108.22-83.58c84.549-40.073 182.621-40.073 267.17 0A320.21 320.21 0 0 1 1311.79 935c29.68 35 51.27 76.56 64.11 120.4 2.78 11.08 6.54 21.93 8 33.29 1.89 11.26 4.29 22.45 4.67 33.89 2.25 22.92 1.85 45 2.3 67.31.62 44.39 1.47 88.71 10 131.65 4.26 21.42 10.52 42.4 19.69 62 8.92 19.75 21.44 37.73 35.4 54.68 27.86 34.06 61.52 63.54 91.79 96.45 15 16.54 29.48 33.91 40.25 53.67 10.77 19.76 17.35 41.96 16.8 64.29-.52-22.35-8.09-43.86-19.55-62.64z"/><path d="M1693.93 1652.63c-.51-26.08-9.27-51.24-22.58-73.22-13.15-22.21-30.41-41.66-48.36-60.2-36.22-36.91-76.59-69.92-111.22-109.5-17.23-19.74-32.85-41.47-44.34-65.46-11.7-23.84-19.8-49.24-25.45-75-11.28-51.62-13.25-104.25-15-156.13-1-25.89-1.26-52.08-3.83-77.15a395.42 395.42 0 0 0-15.09-74.48c-14.85-48.47-39.37-94-72.29-132.36-32.77-38.42-73.38-70.29-119.21-91.41-92.96-42.884-200.04-42.884-293 0-45.82 21.13-86.46 53-119.2 91.41-32.91 38.39-57.44 83.89-72.28 132.35a392.42 392.42 0 0 0-15.08 74.48c-2.57 25.07-2.83 51.26-3.83 77.15-1.79 51.88-3.77 104.51-15 156.14-5.65 25.74-13.76 51.14-25.46 75-11.49 24-27.13 45.72-44.34 65.47-34.64 39.57-75 72.59-111.23 109.49-17.95 18.54-35.21 38-48.36 60.2-13.32 22-22.08 47.13-22.59 73.21-.56-26.06 7.21-51.93 19.84-74.79 12.63-22.86 29.55-43.2 47.08-62.45 35.39-38.28 74.74-72.58 107.41-112.31 16.36-19.76 31-40.81 41.53-63.92 10.76-23 18.12-47.56 23.14-72.6 10-50.23 11.06-102 11.87-153.81.53-26 .25-51.81 2.47-78.45a402.61 402.61 0 0 1 15-78.1 389.5 389.5 0 0 1 74.7-139.86c34.2-40.87 77.24-74.57 125.7-97.17 150.546-70.674 329.829-30.72 436.12 97.19 34.32 40.82 59.62 88.91 74.7 139.84a400.47 400.47 0 0 1 15 78.1c2.22 26.64 1.94 52.46 2.48 78.45.81 51.8 1.86 103.58 11.87 153.81 5 25 12.38 49.61 23.15 72.61 10.5 23.12 25.18 44.16 41.53 63.93 32.67 39.73 72 74 107.42 112.3 17.53 19.25 34.46 39.45 47.08 62.44 12.62 22.99 20.21 48.74 19.65 74.8z"/><path d="M1783.06 1652.63c-.5-29.8-10.44-58.6-25.61-83.79-15-25.44-34.69-47.73-55.18-69-41.33-42.28-87.39-80.1-126.83-125.34-19.63-22.57-37.41-47.35-50.47-74.71-13.31-27.18-22.51-56.15-28.93-85.51-12.79-58.91-15-119-17-178.28-1.11-29.59-1.36-59.49-4.28-88.27a451.15 451.15 0 0 0-17.24-85.38c-17-55.56-45.06-107.75-82.78-151.8-37.55-44.08-84.14-80.63-136.71-104.87-106.636-49.26-229.514-49.26-336.15 0-52.56 24.24-99.17 60.77-136.7 104.88-37.71 44-65.8 96.23-82.78 151.79a447.66 447.66 0 0 0-17.21 85.38c-2.92 28.77-3.18 58.67-4.3 88.27-2 59.27-4.16 119.37-17 178.27-6.42 29.37-15.63 58.34-28.93 85.52-13.06 27.37-30.87 52.14-50.48 74.72-39.44 45.23-85.5 83.06-126.84 125.33-20.49 21.23-40.19 43.52-55.18 69-15.17 25.18-25.11 54-25.62 83.78-.57-29.79 8.39-59.3 22.87-85.36 14.46-26.22 33.83-49.27 53.89-71.21 40.51-43.65 85.56-82.76 123-128.15 18.76-22.59 35.59-46.69 47.67-73.17 12.36-26.35 20.83-54.47 26.61-83.14 11.53-57.5 12.8-116.75 13.79-175.94.64-29.71.36-59.24 2.92-89.58a459.63 459.63 0 0 1 17.12-89c17.21-58 46.07-112.82 85.2-159.3 39.13-46.48 88-84.92 143.18-110.64 112.01-52.487 241.55-52.487 353.56 0 55.18 25.72 104.21 64.09 143.16 110.65 39.13 46.48 68 101.25 85.2 159.28a457.45 457.45 0 0 1 17.1 89c2.56 30.33 2.28 59.86 2.93 89.57 1 59.2 2.26 118.44 13.8 175.94 5.78 28.68 14.24 56.8 26.62 83.15 12.06 26.49 28.91 50.58 47.66 73.18 37.48 45.39 82.53 84.49 123 128.14 20.06 21.94 39.44 45 53.9 71.2 14.64 26.1 23.61 55.6 23.04 85.39z"/><path d="M1872.2 1652.63c-.51-33.53-11.63-66-28.65-94.36-16.83-28.67-39-53.79-62-77.72-46.45-47.65-98.2-90.29-142.45-141.18-22-25.39-42-53.23-56.61-83.95-14.91-30.53-25.22-63.07-32.4-96.06-14.31-66.18-16.72-133.73-18.87-200.41-1.22-33.31-1.47-66.92-4.73-99.39a508.13 508.13 0 0 0-19.39-96.28c-19.11-62.66-50.76-121.54-93.28-171.24-42.33-49.75-94.9-91-154.2-118.34-120.3-55.634-258.96-55.634-379.26 0-59.29 27.36-111.87 68.57-154.18 118.35-42.52 49.69-74.17 108.57-93.28 171.23a505.5 505.5 0 0 0-19.37 96.27c-3.26 32.47-3.51 66.09-4.74 99.39-2.15 66.68-4.56 134.23-18.87 200.41-7.18 33-17.5 65.54-32.41 96.07-14.63 30.73-34.59 58.55-56.6 84-44.26 50.9-96 93.53-142.47 141.18-23 23.93-45.17 49-62 77.71-17 28.39-28.15 60.83-28.66 94.36-.57-33.51 9.57-66.67 25.9-95.93 16.31-29.46 38.12-55.33 60.72-80 45.62-49 96.36-92.94 138.64-144 21.17-25.4 40.16-52.56 53.8-82.41 14-29.69 23.54-61.38 30.08-93.68 13.06-64.78 14.54-131.48 15.72-198.08.75-33.41.47-66.65 3.37-100.69A515 515 0 0 1 615.3 758c19.34-65.15 51.76-126.6 95.69-178.75 43.76-52.19 98.75-95.26 160.68-124.11 125.675-58.834 270.985-58.834 396.66 0C1330.25 484 1385.26 527 1429 579.25c43.93 52.14 76.35 113.59 95.69 178.73a512.94 512.94 0 0 1 19.25 99.9c2.9 34 2.62 67.27 3.38 100.68 1.18 66.6 2.67 133.31 15.72 198.09 6.54 32.29 16.11 64 30.09 93.68 13.64 29.85 32.65 57 53.8 82.42 42.28 51.06 93 95 138.65 144 22.6 24.64 44.42 50.51 60.72 80 16.32 29.25 26.46 62.37 25.9 95.88z"/><path d="M1929.65 1547.7c-18.67-31.9-43.25-59.85-68.81-86.48-51.56-53-109-100.47-158.06-157-24.43-28.21-46.54-59.1-62.74-93.19-16.51-33.87-27.93-70-35.87-106.6-15.84-73.45-18.46-148.46-20.79-222.55l-1.78-55.56c-.66-18.56-1.53-36.79-3.41-54.94a566.75 566.75 0 0 0-21.42-107.21c-21.17-69.8-56.31-135.44-103.6-190.9-47.08-55.53-105.81-101.32-171.89-131.78-134.092-61.72-288.468-61.72-422.56 0-66.06 30.45-124.79 76.24-171.87 131.77-47.29 55.46-82.43 121.09-103.6 190.89a563.74 563.74 0 0 0-21.4 107.21c-1.88 18.15-2.75 36.38-3.42 54.94l-1.77 55.56c-2.34 74.09-5 149.1-20.8 222.55C527.92 1141 516.5 1177.13 500 1211c-16.2 34.09-38.34 65-62.74 93.2-49.06 56.56-106.51 104-158.08 157-25.56 26.63-50.15 54.57-68.81 86.47-18.88 31.59-31.19 67.68-31.69 104.93-.57-37.23 10.75-74 28.93-106.5 18.15-32.69 42.4-61.39 67.53-88.73 50.74-54.4 107.18-103.12 154.26-159.84 23.57-28.23 44.73-58.44 59.94-91.65 15.58-33 26.25-68.3 33.55-104.23 14.57-72 16.27-146.21 17.63-220.22l1.06-55.68c.41-18.5 1.06-37.36 2.77-56.12a571 571 0 0 1 21.53-110.76c21.56-72.2 57.6-140.27 106.37-198 48.55-57.77 109.35-105.62 178-137.63 139.21-65.467 300.36-65.467 439.57 0 68.62 32 129.42 79.85 178 137.62 48.77 57.7 84.81 125.77 106.37 198a567.7 567.7 0 0 1 21.5 110.75c1.71 18.77 2.36 37.62 2.77 56.13l1.06 55.67c1.36 74 3.07 148.17 17.64 220.23 7.31 35.92 18 71.19 33.57 104.23 15.2 33.21 36.38 63.41 59.93 91.65 47.09 56.73 103.53 105.45 154.27 159.84 25.13 27.34 49.39 56 67.53 88.72 18.11 32.52 29.44 69.32 28.87 106.55-.5-37.25-12.8-73.34-31.68-104.93z"/><path d="M2015.76 1537.13c-20.51-35.13-47.54-65.92-75.63-95.24-56.69-58.4-119.83-110.65-173.69-172.88-26.82-31-51.1-65-68.87-102.43-18.12-37.22-30.64-76.9-39.34-117.14-17.36-80.73-20.19-163.2-22.71-244.69l-1.91-61.12c-.72-20.41-1.67-40.5-3.73-60.5A623.79 623.79 0 0 0 1606.31 565c-23.31-76.9-62-149.23-114.1-210.34-51.86-61.2-116.57-111.68-189.37-145.26-147.762-68.066-317.908-68.066-465.67 0-72.8 33.58-137.51 84-189.37 145.25C595.71 415.81 557 488.13 533.71 565a620 620 0 0 0-23.55 118.11c-2.06 20-3 40.08-3.72 60.49l-1.92 61.12c-2.52 81.49-5.37 164-22.72 244.69-8.7 40.25-21.23 79.93-39.35 117.15-17.77 37.46-42.06 71.4-68.87 102.44-53.87 62.23-117 114.48-173.7 172.87-28.09 29.32-55.12 60.1-75.63 95.23-20.73 34.79-34.21 74.53-34.71 115.5a215.09 215.09 0 0 1 8.23-60.54 265.48 265.48 0 0 1 23.73-56.54c20-35.91 46.68-67.45 74.35-97.48 55.85-59.77 118-113.3 169.88-175.69 26-31.05 49.28-64.32 66.06-100.89 17.19-36.39 29-75.22 37-114.77 16.09-79.33 18-160.94 19.55-242.36l1.2-61.23c.47-20.36 1.19-41.07 3.08-61.68a627.94 627.94 0 0 1 23.67-121.66c23.7-79.3 63.3-154.06 116.87-217.42 53.34-63.43 120.11-116 195.47-151.09 152.87-71.84 329.8-71.84 482.67 0 75.36 35.12 142.13 87.65 195.46 151.09 53.57 63.35 93.18 138.1 116.87 217.4a624.91 624.91 0 0 1 23.65 121.66c1.88 20.61 2.61 41.32 3.09 61.68l1.19 61.23c1.55 81.42 3.47 163 19.57 242.37 8.06 39.55 19.84 78.38 37 114.77 16.78 36.58 40.12 69.84 66.06 100.9 51.9 62.39 114 115.92 169.89 175.68 27.67 30 54.37 61.57 74.35 97.48a265.94 265.94 0 0 1 23.74 56.53 215.268 215.268 0 0 1 8.295 60.59c-.505-41-14.005-80.71-34.705-115.5z"/><path d="M2129.03 1587.06a287.65 287.65 0 0 0-27.17-60.51c-22.35-38.35-51.82-72-82.45-104-61.8-63.76-130.63-120.82-189.3-188.71-29.22-33.86-55.66-70.86-75-111.68-19.73-40.56-33.36-83.81-42.82-127.68-18.87-88-21.93-177.93-24.63-266.83l-2-66.68c-.77-22.26-1.8-44.21-4-66.05a680 680 0 0 0-25.72-129c-25.44-84-67.7-163-124.59-229.79-56.65-66.86-127.33-122-206.87-158.72-161.424-74.426-347.346-74.426-508.77 0-79.54 36.7-150.22 91.85-206.86 158.71-56.9 66.78-99.15 145.78-124.6 229.78a676.93 676.93 0 0 0-25.69 129c-2.24 21.83-3.27 43.78-4 66l-2.06 66.68c-2.71 88.9-5.77 178.83-24.64 266.83-9.47 43.88-23.1 87.13-42.82 127.69-19.34 40.83-45.8 77.82-75 111.69-58.67 67.89-127.51 125-189.31 188.7-30.63 32-60.1 65.64-82.45 104a288.12 288.12 0 0 0-27.18 60.5 234.36 234.36 0 0 0-10.57 65.57 235.37 235.37 0 0 1 9.05-66A290 290 0 0 1 35.4 1525c21.82-39.14 51-73.51 81.16-106.25 61-65.13 128.8-123.47 185.49-191.52 28.37-33.88 53.86-70.2 72.21-110.14 18.78-39.73 31.67-82.13 40.49-125.31 17.62-86.6 19.75-175.68 21.48-264.49l1.34-66.8c.52-22.22 1.32-44.78 3.39-67.24a684.82 684.82 0 0 1 25.82-132.55c25.83-86.4 69-167.84 127.37-236.86 58.11-69.1 130.86-126.31 212.95-164.56 166.54-78.2 359.25-78.2 525.79 0 82.09 38.24 154.84 95.45 212.95 164.55 58.37 69 101.54 150.45 127.37 236.85A681 681 0 0 1 1699 593.24c2.07 22.45 2.87 45 3.4 67.23l1.33 66.8c1.74 88.81 3.87 177.89 21.49 264.5 8.83 43.18 21.71 85.58 40.5 125.31 18.35 40 43.86 76.26 72.2 110.15 56.71 68 124.54 126.38 185.51 191.51 30.2 32.74 59.34 67.11 81.16 106.25a290 290 0 0 1 26 61.62 235.55 235.55 0 0 1 9.015 66.02 234.54 234.54 0 0 0-10.575-65.57z"/></g></g></svg>