<svg width="892" height="695" xmlns="http://www.w3.org/2000/svg"><defs><linearGradient x1="97.953%" y1="96.034%" x2="2.058%" y2="95.754%" id="a"><stop stop-color="#8215FF" offset="0%"/><stop stop-color="#F88A86" offset="31.657%"/><stop stop-color="#F68888" offset="66.896%"/><stop stop-color="#B84AC8" offset="82.088%"/><stop stop-color="#8215FF" offset="90.519%"/><stop stop-color="#DE71A0" offset="100%"/></linearGradient></defs><path d="M1515.67 1652.63c-.52-18.63-6.91-36.49-16.52-52.07-9.47-15.75-21.84-29.54-34.72-42.67-26-26.17-55-49.57-80-77.8-12.45-14.09-23.79-29.66-32.18-46.92s-14.48-35.4-18.66-53.88c-8.35-37.09-9.69-74.84-11.07-111.89-.76-18.48-.89-37.24-3-54.91-.51-9-2.47-17.78-4.08-26.61-1.24-8.92-4.35-17.4-6.61-26.06-10.49-34.27-27.77-66.5-51.21-93.47-23.27-27-52-49.35-84.25-64.37a245.37 245.37 0 0 0-206.69 0 252.23 252.23 0 0 0-84.24 64.38c-23.43 27-40.72 59.19-51.21 93.45-2.26 8.67-5.37 17.15-6.61 26.07-1.6 8.83-3.57 17.61-4.06 26.61-2.17 17.66-2.29 36.42-3.06 54.9-1.37 37-2.73 74.8-11.07 111.89-4.18 18.49-10.12 36.76-18.66 53.89-8.54 17.13-19.75 32.83-32.18 46.93-25 28.23-54 51.63-80 77.79-12.88 13.13-25.26 26.92-34.72 42.67-9.61 15.57-16 33.43-16.53 52.06-.55-18.61 4.86-37.19 13.78-53.64 8.92-16.45 21-31.08 33.44-44.92 25.15-27.54 53.11-52.22 76.16-80.62 11.56-14.12 21.85-29.09 29.16-45.48a225.22 225.22 0 0 0 16.07-51.5c6.88-35.65 7.69-72.48 8.16-109.47.37-18.58 0-37 1.9-56.2.34-9.58 2.33-19 3.91-28.39 1.24-9.51 4.37-18.61 6.69-27.9 10.72-36.74 28.78-71.55 53.62-101a268.73 268.73 0 0 1 90.73-70.14 261.27 261.27 0 0 1 224.09 0 268.05 268.05 0 0 1 90.72 70.15c24.84 29.4 42.9 64.21 53.62 101 2.32 9.28 5.45 18.38 6.69 27.9 1.58 9.43 3.57 18.81 3.89 28.38 1.88 19.24 1.54 37.62 1.91 56.21.47 37 1.3 73.81 8.16 109.46a225.54 225.54 0 0 0 16.06 51.54c7.32 16.38 17.62 31.35 29.16 45.48 23.06 28.4 51 53.07 76.18 80.61 12.46 13.84 24.51 28.38 33.44 44.92 8.93 16.54 14.34 34.99 13.79 53.62z" transform="translate(-624 -958)" fill="url(#a)" fill-rule="evenodd"/></svg>