<svg width="714" height="558" xmlns="http://www.w3.org/2000/svg"><defs><linearGradient x1="97.953%" y1="96.034%" x2="2.058%" y2="95.754%" id="a"><stop stop-color="#8215FF" offset="0%"/><stop stop-color="#F88A86" offset="31.657%"/><stop stop-color="#F68888" offset="66.896%"/><stop stop-color="#B84AC8" offset="82.088%"/><stop stop-color="#8215FF" offset="90.519%"/><stop stop-color="#DE71A0" offset="100%"/></linearGradient></defs><path d="M1426.53 1652.63c-.6-14.92-5.84-29.11-13.61-41.46-7.77-12.35-17.45-23.53-27.8-34-20.91-20.77-44.13-39.41-64.31-62a171.61 171.61 0 0 1-26.09-37.64 192.38 192.38 0 0 1-15.17-43.34c-6.83-29.81-8-60.1-9.14-89.75-.8-30-2.4-58.27-11.12-85.57a204.26 204.26 0 0 0-40.73-74 200.35 200.35 0 0 0-66.76-50.87 194.62 194.62 0 0 0-163.6 0 199.94 199.94 0 0 0-66.73 50.91 204.28 204.28 0 0 0-40.74 74c-8.72 27.29-10.29 55.57-11.1 85.56-1.2 29.65-2.34 59.94-9.15 89.75a192 192 0 0 1-15.18 43.35 172.22 172.22 0 0 1-26.08 37.65c-20.19 22.6-43.42 41.23-64.32 62-10.36 10.44-20.15 21.49-27.81 34-7.66 12.51-13 26.54-13.62 41.46-.47-14.9 3.79-29.8 10.86-43 7.07-13.2 16.6-25.07 26.53-36.22 20.06-22.13 42.29-42.07 60.49-64.81a165.09 165.09 0 0 0 23.08-36.21 179.43 179.43 0 0 0 12.58-41c5.35-28.37 6-57.74 6.23-87.32.26-14.88-.06-29.55 1.41-45.09.26-7.72 1.86-15.28 3.11-22.89 1-7.67 3.5-15 5.36-22.5a223.28 223.28 0 0 1 43.15-81.52 216.53 216.53 0 0 1 73.22-56.67 210.54 210.54 0 0 1 181 0 216 216 0 0 1 73.21 56.68 223.27 223.27 0 0 1 43.15 81.5c1.86 7.49 4.37 14.83 5.36 22.5 1.25 7.61 2.86 15.17 3.1 22.89 1.47 15.54 1.15 30.22 1.41 45.09.28 29.58.89 59 6.23 87.33a179 179 0 0 0 12.59 41 165.39 165.39 0 0 0 23.08 36.22c18.21 22.74 40.44 42.67 60.5 64.8 9.93 11.15 19.39 23 26.53 36.22 7.14 13.22 11.35 28.05 10.88 42.95z" transform="translate(-713 -1095)" fill="url(#a)" fill-rule="evenodd"/></svg>