<svg width="1070" height="832" xmlns="http://www.w3.org/2000/svg"><defs><linearGradient x1="97.953%" y1="96.034%" x2="2.058%" y2="95.754%" id="a"><stop stop-color="#8215FF" offset="0%"/><stop stop-color="#F88A86" offset="31.657%"/><stop stop-color="#F68888" offset="66.896%"/><stop stop-color="#B84AC8" offset="82.088%"/><stop stop-color="#8215FF" offset="90.519%"/><stop stop-color="#DE71A0" offset="100%"/></linearGradient></defs><path d="M1585.25 1589.99c-11.3-19-26.12-35.6-41.54-51.43-31.1-31.54-65.76-59.74-95.58-93.64-14.83-16.92-28.29-35.59-38.21-56.21-10.1-20.49-17.1-42.32-22-64.43-9.76-44.34-11.52-89.51-13.12-134-.91-22.18-1-44.66-3.65-66-.62-10.85-3-21.45-4.89-32.11-1.49-10.75-5.22-21-7.94-31.46-12.61-41.36-33.43-80.3-61.69-112.91-28.07-32.69-62.79-59.64-101.75-77.81a295.9 295.9 0 0 0-249.77 0c-39 18.17-73.7 45.11-101.73 77.82-28.27 32.61-49.09 71.54-61.7 112.9-2.72 10.46-6.45 20.7-7.94 31.46-1.92 10.66-4.28 21.26-4.87 32.11-2.6 21.35-2.74 43.83-3.65 66-1.6 44.46-3.37 89.64-13.13 134-4.89 22.11-11.9 43.94-22 64.43-9.92 20.63-23.4 39.28-38.21 56.22-29.83 33.89-64.5 62.1-95.6 93.63-15.42 15.83-30.24 32.45-41.54 51.43-11.46 18.77-19 40.28-19.56 62.63-.55-22.33 6-44.55 16.81-64.21 10.81-19.66 25.26-37.14 40.25-53.68 30.27-32.91 63.93-62.4 91.78-96.46 14-16.93 26.47-34.92 35.4-54.67 9.17-19.65 15.42-40.63 19.68-62 8.5-43 9.34-87.27 10-131.65.44-22.29 0-44.39 2.29-67.31.4-11.44 2.8-22.63 4.69-33.89 1.48-11.36 5.24-22.22 8-33.3 12.84-43.84 34.43-85.36 64.11-120.41a320.77 320.77 0 0 1 108.22-83.58c84.549-40.073 182.621-40.073 267.17 0A320.21 320.21 0 0 1 1311.79 935c29.68 35 51.27 76.56 64.11 120.4 2.78 11.08 6.54 21.93 8 33.29 1.89 11.26 4.29 22.45 4.67 33.89 2.25 22.92 1.85 45 2.3 67.31.62 44.39 1.47 88.71 10 131.65 4.26 21.42 10.52 42.4 19.69 62 8.92 19.75 21.44 37.73 35.4 54.68 27.86 34.06 61.52 63.54 91.79 96.45 15 16.54 29.48 33.91 40.25 53.67 10.77 19.76 17.35 41.96 16.8 64.29-.52-22.35-8.09-43.86-19.55-62.64z" transform="translate(-535 -821)" fill="url(#a)" fill-rule="evenodd"/></svg>