<svg width="2140" height="1653" xmlns="http://www.w3.org/2000/svg"><defs><linearGradient x1="97.953%" y1="96.034%" x2="2.058%" y2="95.754%" id="a"><stop stop-color="#8215FF" offset="0%"/><stop stop-color="#F88A86" offset="31.657%"/><stop stop-color="#F68888" offset="66.896%"/><stop stop-color="#B84AC8" offset="82.088%"/><stop stop-color="#8215FF" offset="90.519%"/><stop stop-color="#DE71A0" offset="100%"/></linearGradient></defs><path d="M2129.03 1587.06a287.65 287.65 0 0 0-27.17-60.51c-22.35-38.35-51.82-72-82.45-104-61.8-63.76-130.63-120.82-189.3-188.71-29.22-33.86-55.66-70.86-75-111.68-19.73-40.56-33.36-83.81-42.82-127.68-18.87-88-21.93-177.93-24.63-266.83l-2-66.68c-.77-22.26-1.8-44.21-4-66.05a680 680 0 0 0-25.72-129c-25.44-84-67.7-163-124.59-229.79-56.65-66.86-127.33-122-206.87-158.72-161.424-74.426-347.346-74.426-508.77 0-79.54 36.7-150.22 91.85-206.86 158.71-56.9 66.78-99.15 145.78-124.6 229.78a676.93 676.93 0 0 0-25.69 129c-2.24 21.83-3.27 43.78-4 66l-2.06 66.68c-2.71 88.9-5.77 178.83-24.64 266.83-9.47 43.88-23.1 87.13-42.82 127.69-19.34 40.83-45.8 77.82-75 111.69-58.67 67.89-127.51 125-189.31 188.7-30.63 32-60.1 65.64-82.45 104a288.12 288.12 0 0 0-27.18 60.5 234.36 234.36 0 0 0-10.57 65.57 235.37 235.37 0 0 1 9.05-66A290 290 0 0 1 35.4 1525c21.82-39.14 51-73.51 81.16-106.25 61-65.13 128.8-123.47 185.49-191.52 28.37-33.88 53.86-70.2 72.21-110.14 18.78-39.73 31.67-82.13 40.49-125.31 17.62-86.6 19.75-175.68 21.48-264.49l1.34-66.8c.52-22.22 1.32-44.78 3.39-67.24a684.82 684.82 0 0 1 25.82-132.55c25.83-86.4 69-167.84 127.37-236.86 58.11-69.1 130.86-126.31 212.95-164.56 166.54-78.2 359.25-78.2 525.79 0 82.09 38.24 154.84 95.45 212.95 164.55 58.37 69 101.54 150.45 127.37 236.85A681 681 0 0 1 1699 593.24c2.07 22.45 2.87 45 3.4 67.23l1.33 66.8c1.74 88.81 3.87 177.89 21.49 264.5 8.83 43.18 21.71 85.58 40.5 125.31 18.35 40 43.86 76.26 72.2 110.15 56.71 68 124.54 126.38 185.51 191.51 30.2 32.74 59.34 67.11 81.16 106.25a290 290 0 0 1 26 61.62 235.55 235.55 0 0 1 9.015 66.02 234.54 234.54 0 0 0-10.575-65.57z" fill="url(#a)" fill-rule="evenodd"/></svg>