<svg width="1784" height="1379" xmlns="http://www.w3.org/2000/svg"><defs><linearGradient x1="97.953%" y1="96.034%" x2="2.058%" y2="95.754%" id="a"><stop stop-color="#8215FF" offset="0%"/><stop stop-color="#F88A86" offset="31.657%"/><stop stop-color="#F68888" offset="66.896%"/><stop stop-color="#B84AC8" offset="82.088%"/><stop stop-color="#8215FF" offset="90.519%"/><stop stop-color="#DE71A0" offset="100%"/></linearGradient></defs><path d="M1929.65 1547.7c-18.67-31.9-43.25-59.85-68.81-86.48-51.56-53-109-100.47-158.06-157-24.43-28.21-46.54-59.1-62.74-93.19-16.51-33.87-27.93-70-35.87-106.6-15.84-73.45-18.46-148.46-20.79-222.55l-1.78-55.56c-.66-18.56-1.53-36.79-3.41-54.94a566.75 566.75 0 0 0-21.42-107.21c-21.17-69.8-56.31-135.44-103.6-190.9-47.08-55.53-105.81-101.32-171.89-131.78-134.092-61.72-288.468-61.72-422.56 0-66.06 30.45-124.79 76.24-171.87 131.77-47.29 55.46-82.43 121.09-103.6 190.89a563.74 563.74 0 0 0-21.4 107.21c-1.88 18.15-2.75 36.38-3.42 54.94l-1.77 55.56c-2.34 74.09-5 149.1-20.8 222.55C527.92 1141 516.5 1177.13 500 1211c-16.2 34.09-38.34 65-62.74 93.2-49.06 56.56-106.51 104-158.08 157-25.56 26.63-50.15 54.57-68.81 86.47-18.88 31.59-31.19 67.68-31.69 104.93-.57-37.23 10.75-74 28.93-106.5 18.15-32.69 42.4-61.39 67.53-88.73 50.74-54.4 107.18-103.12 154.26-159.84 23.57-28.23 44.73-58.44 59.94-91.65 15.58-33 26.25-68.3 33.55-104.23 14.57-72 16.27-146.21 17.63-220.22l1.06-55.68c.41-18.5 1.06-37.36 2.77-56.12a571 571 0 0 1 21.53-110.76c21.56-72.2 57.6-140.27 106.37-198 48.55-57.77 109.35-105.62 178-137.63 139.21-65.467 300.36-65.467 439.57 0 68.62 32 129.42 79.85 178 137.62 48.77 57.7 84.81 125.77 106.37 198a567.7 567.7 0 0 1 21.5 110.75c1.71 18.77 2.36 37.62 2.77 56.13l1.06 55.67c1.36 74 3.07 148.17 17.64 220.23 7.31 35.92 18 71.19 33.57 104.23 15.2 33.21 36.38 63.41 59.93 91.65 47.09 56.73 103.53 105.45 154.27 159.84 25.13 27.34 49.39 56 67.53 88.72 18.11 32.52 29.44 69.32 28.87 106.55-.5-37.25-12.8-73.34-31.68-104.93z" transform="translate(-178 -274)" fill="url(#a)" fill-rule="evenodd"/></svg>