<svg width="1428" height="1106" xmlns="http://www.w3.org/2000/svg"><defs><linearGradient x1="97.953%" y1="96.034%" x2="2.058%" y2="95.754%" id="a"><stop stop-color="#8215FF" offset="0%"/><stop stop-color="#F88A86" offset="31.657%"/><stop stop-color="#F68888" offset="66.896%"/><stop stop-color="#B84AC8" offset="82.088%"/><stop stop-color="#8215FF" offset="90.519%"/><stop stop-color="#DE71A0" offset="100%"/></linearGradient></defs><path d="M1783.06 1652.63c-.5-29.8-10.44-58.6-25.61-83.79-15-25.44-34.69-47.73-55.18-69-41.33-42.28-87.39-80.1-126.83-125.34-19.63-22.57-37.41-47.35-50.47-74.71-13.31-27.18-22.51-56.15-28.93-85.51-12.79-58.91-15-119-17-178.28-1.11-29.59-1.36-59.49-4.28-88.27a451.15 451.15 0 0 0-17.24-85.38c-17-55.56-45.06-107.75-82.78-151.8-37.55-44.08-84.14-80.63-136.71-104.87-106.636-49.26-229.514-49.26-336.15 0-52.56 24.24-99.17 60.77-136.7 104.88-37.71 44-65.8 96.23-82.78 151.79a447.66 447.66 0 0 0-17.21 85.38c-2.92 28.77-3.18 58.67-4.3 88.27-2 59.27-4.16 119.37-17 178.27-6.42 29.37-15.63 58.34-28.93 85.52-13.06 27.37-30.87 52.14-50.48 74.72-39.44 45.23-85.5 83.06-126.84 125.33-20.49 21.23-40.19 43.52-55.18 69-15.17 25.18-25.11 54-25.62 83.78-.57-29.79 8.39-59.3 22.87-85.36 14.46-26.22 33.83-49.27 53.89-71.21 40.51-43.65 85.56-82.76 123-128.15 18.76-22.59 35.59-46.69 47.67-73.17 12.36-26.35 20.83-54.47 26.61-83.14 11.53-57.5 12.8-116.75 13.79-175.94.64-29.71.36-59.24 2.92-89.58a459.63 459.63 0 0 1 17.12-89c17.21-58 46.07-112.82 85.2-159.3 39.13-46.48 88-84.92 143.18-110.64 112.01-52.487 241.55-52.487 353.56 0 55.18 25.72 104.21 64.09 143.16 110.65 39.13 46.48 68 101.25 85.2 159.28a457.45 457.45 0 0 1 17.1 89c2.56 30.33 2.28 59.86 2.93 89.57 1 59.2 2.26 118.44 13.8 175.94 5.78 28.68 14.24 56.8 26.62 83.15 12.06 26.49 28.91 50.58 47.66 73.18 37.48 45.39 82.53 84.49 123 128.14 20.06 21.94 39.44 45 53.9 71.2 14.64 26.1 23.61 55.6 23.04 85.39z" transform="translate(-356 -547)" fill="url(#a)" fill-rule="evenodd"/></svg>