<svg width="1962" height="1516" xmlns="http://www.w3.org/2000/svg"><defs><linearGradient x1="97.953%" y1="96.034%" x2="2.058%" y2="95.754%" id="a"><stop stop-color="#8215FF" offset="0%"/><stop stop-color="#F88A86" offset="31.657%"/><stop stop-color="#F68888" offset="66.896%"/><stop stop-color="#B84AC8" offset="82.088%"/><stop stop-color="#8215FF" offset="90.519%"/><stop stop-color="#DE71A0" offset="100%"/></linearGradient></defs><path d="M2015.76 1537.13c-20.51-35.13-47.54-65.92-75.63-95.24-56.69-58.4-119.83-110.65-173.69-172.88-26.82-31-51.1-65-68.87-102.43-18.12-37.22-30.64-76.9-39.34-117.14-17.36-80.73-20.19-163.2-22.71-244.69l-1.91-61.12c-.72-20.41-1.67-40.5-3.73-60.5A623.79 623.79 0 0 0 1606.31 565c-23.31-76.9-62-149.23-114.1-210.34-51.86-61.2-116.57-111.68-189.37-145.26-147.762-68.066-317.908-68.066-465.67 0-72.8 33.58-137.51 84-189.37 145.25C595.71 415.81 557 488.13 533.71 565a620 620 0 0 0-23.55 118.11c-2.06 20-3 40.08-3.72 60.49l-1.92 61.12c-2.52 81.49-5.37 164-22.72 244.69-8.7 40.25-21.23 79.93-39.35 117.15-17.77 37.46-42.06 71.4-68.87 102.44-53.87 62.23-117 114.48-173.7 172.87-28.09 29.32-55.12 60.1-75.63 95.23-20.73 34.79-34.21 74.53-34.71 115.5a215.09 215.09 0 0 1 8.23-60.54 265.48 265.48 0 0 1 23.73-56.54c20-35.91 46.68-67.45 74.35-97.48 55.85-59.77 118-113.3 169.88-175.69 26-31.05 49.28-64.32 66.06-100.89 17.19-36.39 29-75.22 37-114.77 16.09-79.33 18-160.94 19.55-242.36l1.2-61.23c.47-20.36 1.19-41.07 3.08-61.68a627.94 627.94 0 0 1 23.67-121.66c23.7-79.3 63.3-154.06 116.87-217.42 53.34-63.43 120.11-116 195.47-151.09 152.87-71.84 329.8-71.84 482.67 0 75.36 35.12 142.13 87.65 195.46 151.09 53.57 63.35 93.18 138.1 116.87 217.4a624.91 624.91 0 0 1 23.65 121.66c1.88 20.61 2.61 41.32 3.09 61.68l1.19 61.23c1.55 81.42 3.47 163 19.57 242.37 8.06 39.55 19.84 78.38 37 114.77 16.78 36.58 40.12 69.84 66.06 100.9 51.9 62.39 114 115.92 169.89 175.68 27.67 30 54.37 61.57 74.35 97.48a265.94 265.94 0 0 1 23.74 56.53 215.268 215.268 0 0 1 8.295 60.59c-.505-41-14.005-80.71-34.705-115.5z" transform="translate(-89 -137)" fill="url(#a)" fill-rule="evenodd"/></svg>