<svg width="1248" height="969" xmlns="http://www.w3.org/2000/svg"><defs><linearGradient x1="97.953%" y1="96.034%" x2="2.058%" y2="95.754%" id="a"><stop stop-color="#8215FF" offset="0%"/><stop stop-color="#F88A86" offset="31.657%"/><stop stop-color="#F68888" offset="66.896%"/><stop stop-color="#B84AC8" offset="82.088%"/><stop stop-color="#8215FF" offset="90.519%"/><stop stop-color="#DE71A0" offset="100%"/></linearGradient></defs><path d="M1693.93 1652.63c-.51-26.08-9.27-51.24-22.58-73.22-13.15-22.21-30.41-41.66-48.36-60.2-36.22-36.91-76.59-69.92-111.22-109.5-17.23-19.74-32.85-41.47-44.34-65.46-11.7-23.84-19.8-49.24-25.45-75-11.28-51.62-13.25-104.25-15-156.13-1-25.89-1.26-52.08-3.83-77.15a395.42 395.42 0 0 0-15.09-74.48c-14.85-48.47-39.37-94-72.29-132.36-32.77-38.42-73.38-70.29-119.21-91.41-92.96-42.884-200.04-42.884-293 0-45.82 21.13-86.46 53-119.2 91.41-32.91 38.39-57.44 83.89-72.28 132.35a392.42 392.42 0 0 0-15.08 74.48c-2.57 25.07-2.83 51.26-3.83 77.15-1.79 51.88-3.77 104.51-15 156.14-5.65 25.74-13.76 51.14-25.46 75-11.49 24-27.13 45.72-44.34 65.47-34.64 39.57-75 72.59-111.23 109.49-17.95 18.54-35.21 38-48.36 60.2-13.32 22-22.08 47.13-22.59 73.21-.56-26.06 7.21-51.93 19.84-74.79 12.63-22.86 29.55-43.2 47.08-62.45 35.39-38.28 74.74-72.58 107.41-112.31 16.36-19.76 31-40.81 41.53-63.92 10.76-23 18.12-47.56 23.14-72.6 10-50.23 11.06-102 11.87-153.81.53-26 .25-51.81 2.47-78.45a402.61 402.61 0 0 1 15-78.1 389.5 389.5 0 0 1 74.7-139.86c34.2-40.87 77.24-74.57 125.7-97.17 150.546-70.674 329.829-30.72 436.12 97.19 34.32 40.82 59.62 88.91 74.7 139.84a400.47 400.47 0 0 1 15 78.1c2.22 26.64 1.94 52.46 2.48 78.45.81 51.8 1.86 103.58 11.87 153.81 5 25 12.38 49.61 23.15 72.61 10.5 23.12 25.18 44.16 41.53 63.93 32.67 39.73 72 74 107.42 112.3 17.53 19.25 34.46 39.45 47.08 62.44 12.62 22.99 20.21 48.74 19.65 74.8z" transform="translate(-446 -684)" fill="url(#a)" fill-rule="evenodd"/></svg>