<svg width="1606" height="1242" xmlns="http://www.w3.org/2000/svg"><defs><linearGradient x1="97.953%" y1="96.034%" x2="2.058%" y2="95.754%" id="a"><stop stop-color="#8215FF" offset="0%"/><stop stop-color="#F88A86" offset="31.657%"/><stop stop-color="#F68888" offset="66.896%"/><stop stop-color="#B84AC8" offset="82.088%"/><stop stop-color="#8215FF" offset="90.519%"/><stop stop-color="#DE71A0" offset="100%"/></linearGradient></defs><path d="M1872.2 1652.63c-.51-33.53-11.63-66-28.65-94.36-16.83-28.67-39-53.79-62-77.72-46.45-47.65-98.2-90.29-142.45-141.18-22-25.39-42-53.23-56.61-83.95-14.91-30.53-25.22-63.07-32.4-96.06-14.31-66.18-16.72-133.73-18.87-200.41-1.22-33.31-1.47-66.92-4.73-99.39a508.13 508.13 0 0 0-19.39-96.28c-19.11-62.66-50.76-121.54-93.28-171.24-42.33-49.75-94.9-91-154.2-118.34-120.3-55.634-258.96-55.634-379.26 0-59.29 27.36-111.87 68.57-154.18 118.35-42.52 49.69-74.17 108.57-93.28 171.23a505.5 505.5 0 0 0-19.37 96.27c-3.26 32.47-3.51 66.09-4.74 99.39-2.15 66.68-4.56 134.23-18.87 200.41-7.18 33-17.5 65.54-32.41 96.07-14.63 30.73-34.59 58.55-56.6 84-44.26 50.9-96 93.53-142.47 141.18-23 23.93-45.17 49-62 77.71-17 28.39-28.15 60.83-28.66 94.36-.57-33.51 9.57-66.67 25.9-95.93 16.31-29.46 38.12-55.33 60.72-80 45.62-49 96.36-92.94 138.64-144 21.17-25.4 40.16-52.56 53.8-82.41 14-29.69 23.54-61.38 30.08-93.68 13.06-64.78 14.54-131.48 15.72-198.08.75-33.41.47-66.65 3.37-100.69A515 515 0 0 1 615.3 758c19.34-65.15 51.76-126.6 95.69-178.75 43.76-52.19 98.75-95.26 160.68-124.11 125.675-58.834 270.985-58.834 396.66 0C1330.25 484 1385.26 527 1429 579.25c43.93 52.14 76.35 113.59 95.69 178.73a512.94 512.94 0 0 1 19.25 99.9c2.9 34 2.62 67.27 3.38 100.68 1.18 66.6 2.67 133.31 15.72 198.09 6.54 32.29 16.11 64 30.09 93.68 13.64 29.85 32.65 57 53.8 82.42 42.28 51.06 93 95 138.65 144 22.6 24.64 44.42 50.51 60.72 80 16.32 29.25 26.46 62.37 25.9 95.88z" transform="translate(-267 -411)" fill="url(#a)" fill-rule="evenodd"/></svg>