<svg width="536" height="422" xmlns="http://www.w3.org/2000/svg"><defs><linearGradient x1="97.953%" y1="96.034%" x2="2.058%" y2="95.754%" id="a"><stop stop-color="#8215FF" offset="0%"/><stop stop-color="#F88A86" offset="31.657%"/><stop stop-color="#F68888" offset="66.896%"/><stop stop-color="#B84AC8" offset="82.088%"/><stop stop-color="#8215FF" offset="90.519%"/><stop stop-color="#DE71A0" offset="100%"/></linearGradient></defs><path d="M1337.4 1652.63c-.59-11.19-4.63-21.74-10.55-30.9-5.92-9.16-13.2-17.45-21-25.2-15.79-15.41-33.33-29.22-48.71-46.15a129.49 129.49 0 0 1-19.94-28.41 145.33 145.33 0 0 1-11.7-32.81c-5.31-22.53-6.21-45.36-7.23-67.61-.7-22.59-2-43.37-8.49-63.56a151 151 0 0 0-30.24-54.58 148.75 148.75 0 0 0-49.26-37.46 144 144 0 0 0-120.53 0 147.9 147.9 0 0 0-49.24 37.47 150.71 150.71 0 0 0-30.25 54.57c-6.49 20.18-7.76 41-8.48 63.55-1 22.25-1.93 45.08-7.22 67.62a146 146 0 0 1-11.71 32.81 129.93 129.93 0 0 1-19.95 28.42c-15.39 16.92-32.93 30.74-48.71 46.14-7.82 7.74-15.2 15.93-21 25.19-5.8 9.26-10 19.71-10.56 30.9-.48-11.17 2.59-22.44 7.8-32.47 5.21-10.03 12.34-19 19.74-27.45 14.94-16.77 31.48-31.88 44.89-49a122.62 122.62 0 0 0 16.93-27 133.65 133.65 0 0 0 9.12-30.43c3.82-21.1 4.21-43 4.31-65.19.14-11.17-.16-22.13.91-34 .17-5.86 1.37-11.61 2.31-17.39.74-5.83 2.63-11.41 4-17.11a169.89 169.89 0 0 1 32.66-62.07 164.5 164.5 0 0 1 55.73-43.23 160 160 0 0 1 137.93 0 164.07 164.07 0 0 1 55.72 43.24 169.85 169.85 0 0 1 32.66 62.06c1.4 5.7 3.29 11.28 4 17.1.94 5.79 2.14 11.53 2.3 17.39 1.07 11.85.77 22.81.92 34 .09 22.18.49 44.09 4.31 65.19a132.59 132.59 0 0 0 9.12 30.44 123.06 123.06 0 0 0 16.93 27c13.41 17.08 30 32.19 44.9 49 7.4 8.46 14.45 17.41 19.74 27.45 5.29 10.04 8.32 21.31 7.84 32.48z" transform="translate(-802 -1231)" fill="url(#a)" fill-rule="evenodd"/></svg>