<svg width="358" height="285" xmlns="http://www.w3.org/2000/svg"><defs><linearGradient x1="97.953%" y1="96.034%" x2="2.058%" y2="95.754%" id="a"><stop stop-color="#8215FF" offset="0%"/><stop stop-color="#F88A86" offset="31.657%"/><stop stop-color="#F68888" offset="66.896%"/><stop stop-color="#B84AC8" offset="82.088%"/><stop stop-color="#8215FF" offset="90.519%"/><stop stop-color="#DE71A0" offset="100%"/></linearGradient></defs><path d="M1248.27 1652.63a42 42 0 0 0-7.49-20.34 95.24 95.24 0 0 0-14.32-16.34c-10.71-10-22.46-19.1-33-30.38a88.07 88.07 0 0 1-13.79-19.18 100.09 100.09 0 0 1-8.23-22.27c-3.78-15.26-4.47-30.63-5.3-45.47-.62-15.2-1.61-28.48-5.87-41.56a97.26 97.26 0 0 0-19.76-35.14c-17.57-20.4-43.67-32.76-70.49-32.41-26.81-.32-52.93 12-70.47 32.43a97.32 97.32 0 0 0-19.76 35.12c-4.26 13.08-5.22 26.36-5.86 41.56-.83 14.84-1.53 30.21-5.3 45.48a99.63 99.63 0 0 1-8.24 22.27 88.13 88.13 0 0 1-13.79 19.19c-10.56 11.28-22.32 20.4-33 30.38a95.12 95.12 0 0 0-14.32 16.32 42 42 0 0 0-7.49 20.34 43.56 43.56 0 0 1 4.74-21.91 97.39 97.39 0 0 1 12.85-18.76c9.77-11.47 20.74-21.64 29.37-33 18.59-22 18.94-51.42 18.83-80.68 0-7.46-.25-14.7.41-22.87a119.61 119.61 0 0 1 26.39-66.23c20.56-25.13 52.91-40.7 85.67-40.6 32.75-.07 65.12 15.46 85.65 40.62a116.35 116.35 0 0 1 22.17 42.62 114.33 114.33 0 0 1 4.2 23.6c.67 8.16.39 15.4.42 22.86-.1 29.26.24 58.73 18.84 80.7 8.63 11.39 19.61 21.55 29.38 33a97.58 97.58 0 0 1 12.86 18.76 43.61 43.61 0 0 1 4.7 21.89z" transform="translate(-891 -1368)" fill="url(#a)" fill-rule="evenodd"/></svg>