<svg width="180" height="148" xmlns="http://www.w3.org/2000/svg"><defs><linearGradient x1="97.953%" y1="96.034%" x2="2.058%" y2="95.754%" id="a"><stop stop-color="#8215FF" offset="0%"/><stop stop-color="#F88A86" offset="31.657%"/><stop stop-color="#F68888" offset="66.896%"/><stop stop-color="#B84AC8" offset="82.088%"/><stop stop-color="#8215FF" offset="90.519%"/><stop stop-color="#DE71A0" offset="100%"/></linearGradient></defs><path d="M1159.13 1652.63c-1.26-7.56-6.52-12.73-12-17.34-5.59-4.62-11.66-8.92-17.42-14.53-5.76-5.61-10.33-13.78-12.4-21.68-2.26-8-2.74-15.91-3.38-23.34-.53-7.8-1.21-13.58-3.25-19.56a43.76 43.76 0 0 0-9.27-15.69 42 42 0 0 0-62.89 0 43.78 43.78 0 0 0-9.28 15.69c-2 6-2.69 11.75-3.24 19.55-.64 7.44-1.13 15.35-3.38 23.35-2.06 7.9-6.58 16.16-12.41 21.68s-11.84 9.91-17.43 14.53c-5.43 4.61-10.7 9.77-12 17.33a21.36 21.36 0 0 1 1.68-11.35 50.31 50.31 0 0 1 6.06-10c4.65-6.11 9.94-11.45 13.77-17.17 8.17-10.7 7.64-24 7.29-38.78-.08-3.76-.34-7.28-.08-11.76a61.89 61.89 0 0 1 2.08-12.7 63 63 0 0 1 11.7-23.2 59.81 59.81 0 0 1 93.24 0 63.11 63.11 0 0 1 11.7 23.18c2.42 8.25 2.36 17.46 2 24.46-.35 14.75-.88 28.09 7.3 38.8 3.83 5.72 9.13 11 13.78 17.16a49.85 49.85 0 0 1 6.06 10 21.22 21.22 0 0 1 1.77 11.37z" transform="translate(-980 -1505)" fill="url(#a)" fill-rule="evenodd"/></svg>